# xmcd
#
# Track frame offsets:
#       150
#       14017
#       28443
#       44803
#       59603
#       71833
#       86658
#       101510
#       115105
#       128051
#       140698
#       156442
#
# Disc length: 2229 seconds
#
# Revision: 0
# Processed by: cddbd v1.5.2PL0 Copyright (c) Steve Scherf et al.
# Submitted via: WaveLab 4.01
#
DISCID=ba08b30c
DTITLE=Christine Perfect - Christine Perfect
DYEAR=1970
DGENRE=blues
TTITLE0=Crazy 'bout You
TTITLE1=I'm On My Way
TTITLE2=Let Me Go (Leave Me Alone)
TTITLE3=Wait And See
TTITLE4=Close To Me
TTITLE5=I'd Rather Go Blind
TTITLE6=When You Say
TTITLE7=And That's Saying A Lot
TTITLE8=No Road Is The Right Road
TTITLE9=For You
TTITLE10=I'm Too Far Gone (To Turn Around)
TTITLE11=I Want You
EXTD=
EXTT0=
EXTT1=
EXTT2=
EXTT3=
EXTT4=
EXTT5=
EXTT6=
EXTT7=
EXTT8=
EXTT9=
EXTT10=
EXTT11=
PLAYORDER=
